<svg width="87" height="24" viewBox="0 0 87 24" fill="none" xmlns="http://www.w3.org/2000/svg">
<path d="M32.5377 6.17194H27.7251C27.5657 6.17184 27.4116 6.22829 27.2905 6.33113C27.1693 6.43397 27.0891 6.57643 27.0643 6.73284L25.1178 18.9979C25.1089 19.0549 25.1125 19.113 25.1283 19.1684C25.1441 19.2239 25.1719 19.2752 25.2096 19.3189C25.2473 19.3627 25.2941 19.3978 25.3468 19.4218C25.3995 19.4458 25.4568 19.4582 25.5147 19.4581H27.8123C27.9717 19.4582 28.126 19.4017 28.2471 19.2987C28.3683 19.1957 28.4484 19.0531 28.4731 18.8965L28.9981 15.5884C29.0227 15.432 29.1028 15.2895 29.2238 15.1865C29.3448 15.0836 29.4988 15.0269 29.6581 15.0268H31.1816C34.3518 15.0268 36.1815 13.5022 36.6593 10.4808C36.8746 9.15901 36.6684 8.12042 36.0456 7.39306C35.3616 6.59436 34.1485 6.17194 32.5377 6.17194V6.17194ZM33.0929 10.6515C32.8297 12.3678 31.5103 12.3678 30.2345 12.3678H29.5082L30.0177 9.1625C30.0326 9.06873 30.0807 8.98332 30.1534 8.92165C30.226 8.85999 30.3184 8.8261 30.4139 8.8261H30.7468C31.6158 8.8261 32.4356 8.8261 32.8593 9.31847C33.1119 9.61221 33.1893 10.0486 33.0929 10.6515V10.6515ZM46.9235 10.5962H44.6188C44.5233 10.5962 44.4309 10.6301 44.3583 10.6918C44.2857 10.7535 44.2376 10.8389 44.2227 10.9326L44.1206 11.5733L43.9595 11.3411C43.4605 10.6214 42.348 10.3808 41.2376 10.3808C38.6909 10.3808 36.5157 12.2978 36.0921 14.987C35.8718 16.3284 36.185 17.6111 36.9506 18.5056C37.6529 19.3281 38.6578 19.6708 39.8534 19.6708C41.9054 19.6708 43.0433 18.3594 43.0433 18.3594L42.9405 18.9958C42.9314 19.0527 42.9347 19.1109 42.9504 19.1664C42.966 19.2219 42.9936 19.2734 43.0312 19.3172C43.0688 19.3611 43.1155 19.3964 43.1681 19.4206C43.2207 19.4448 43.278 19.4574 43.336 19.4574H45.4119C45.5713 19.4575 45.7255 19.401 45.8467 19.298C45.9679 19.195 46.048 19.0524 46.0727 18.8958L47.3182 11.0564C47.3274 10.9997 47.3241 10.9416 47.3084 10.8862C47.2928 10.8309 47.2653 10.7795 47.2277 10.7358C47.1902 10.692 47.1436 10.6569 47.091 10.6328C47.0385 10.6087 46.9813 10.5962 46.9235 10.5962V10.5962ZM43.7111 15.0541C43.4887 16.3627 42.4437 17.2411 41.1109 17.2411C40.4417 17.2411 39.9069 17.0278 39.5634 16.6235C39.2229 16.2221 39.0934 15.6507 39.2017 15.0143C39.4093 13.7169 40.4719 12.8098 41.7843 12.8098C42.4388 12.8098 42.9708 13.0259 43.3212 13.4336C43.6724 13.8456 43.8117 14.4205 43.7111 15.0541V15.0541ZM59.1974 10.5962H56.8816C56.7723 10.5964 56.6648 10.6231 56.5683 10.6739C56.4718 10.7247 56.3892 10.7982 56.3277 10.8879L53.1336 15.564L51.7797 11.0704C51.7382 10.9334 51.6533 10.8133 51.5377 10.7279C51.4221 10.6425 51.282 10.5963 51.1379 10.5962H48.8622C48.7983 10.5961 48.7353 10.6111 48.6784 10.64C48.6215 10.6689 48.5724 10.7109 48.5352 10.7625C48.498 10.8141 48.4737 10.8738 48.4643 10.9366C48.455 10.9994 48.4608 11.0635 48.4815 11.1236L51.0324 18.5636L48.6342 21.9284C48.5915 21.988 48.5663 22.0582 48.5611 22.1312C48.5559 22.2042 48.5711 22.2771 48.6049 22.3422C48.6387 22.4072 48.6898 22.4617 48.7527 22.4997C48.8156 22.5377 48.8878 22.5578 48.9614 22.5578H51.2745C51.3825 22.558 51.4889 22.5321 51.5846 22.4824C51.6803 22.4327 51.7625 22.3606 51.824 22.2725L59.5268 11.2222C59.5685 11.1624 59.593 11.0924 59.5976 11.0198C59.6021 10.9471 59.5866 10.8747 59.5527 10.8102C59.5188 10.7457 59.4677 10.6916 59.4051 10.6539C59.3425 10.6162 59.2707 10.5963 59.1974 10.5962V10.5962Z" fill="#9E9E9E"/>
<path d="M66.8649 6.17195H62.0516C61.8924 6.17202 61.7385 6.22855 61.6175 6.33137C61.4965 6.43419 61.4164 6.57656 61.3916 6.73285L59.4451 18.998C59.4361 19.0548 59.4395 19.1129 59.4552 19.1682C59.4709 19.2236 59.4985 19.2749 59.5361 19.3187C59.5737 19.3624 59.6204 19.3975 59.673 19.4216C59.7255 19.4457 59.7827 19.4582 59.8406 19.4582H62.3106C62.422 19.458 62.5297 19.4183 62.6144 19.3463C62.699 19.2742 62.755 19.1745 62.7722 19.0651L63.3246 15.5885C63.3493 15.432 63.4293 15.2895 63.5503 15.1865C63.6714 15.0836 63.8254 15.0269 63.9847 15.0269H65.5075C68.6784 15.0269 70.5073 13.5022 70.9858 10.4809C71.2019 9.15902 70.9943 8.12043 70.3715 7.39307C69.6882 6.59438 68.4757 6.17195 66.8649 6.17195V6.17195ZM67.4202 10.6515C67.1577 12.3678 65.8383 12.3678 64.5617 12.3678H63.8362L64.3464 9.16252C64.361 9.06874 64.4089 8.98326 64.4815 8.92156C64.554 8.85985 64.6464 8.82599 64.7419 8.82611H65.0747C65.9431 8.82611 66.7636 8.82611 67.1872 9.31848C67.4399 9.61222 67.5166 10.0486 67.4202 10.6515V10.6515ZM81.25 10.5963H78.9468C78.8513 10.596 78.7588 10.6298 78.6863 10.6915C78.6137 10.7533 78.5658 10.8388 78.5513 10.9327L78.4493 11.5733L78.2874 11.3411C77.7885 10.6214 76.6767 10.3808 75.5662 10.3808C73.0195 10.3808 70.8451 12.2979 70.4215 14.987C70.2019 16.3284 70.5136 17.6111 71.2793 18.5056C71.983 19.3281 72.9865 19.6708 74.182 19.6708C76.234 19.6708 77.3719 18.3594 77.3719 18.3594L77.2692 18.9959C77.26 19.0529 77.2634 19.1112 77.2791 19.1668C77.2949 19.2224 77.3226 19.2739 77.3603 19.3178C77.3981 19.3617 77.445 19.3969 77.4978 19.421C77.5505 19.4451 77.608 19.4576 77.6661 19.4575H79.7413C79.9006 19.4574 80.0546 19.4007 80.1757 19.2978C80.2967 19.1948 80.3767 19.0523 80.4014 18.8958L81.6476 11.0564C81.6565 10.9995 81.6528 10.9413 81.6369 10.8859C81.6209 10.8305 81.5931 10.7792 81.5553 10.7354C81.5176 10.6917 81.4707 10.6566 81.418 10.6326C81.3653 10.6086 81.308 10.5962 81.25 10.5963V10.5963ZM78.0376 15.0541C77.8167 16.3627 76.7703 17.2411 75.4375 17.2411C74.7696 17.2411 74.2334 17.0278 73.89 16.6235C73.5494 16.2221 73.4213 15.6507 73.5283 15.0143C73.7373 13.7169 74.7985 12.8098 76.1109 12.8098C76.7653 12.8098 77.2973 13.0259 77.6478 13.4337C78.0003 13.8456 78.1397 14.4205 78.0376 15.0541V15.0541ZM83.967 6.50835L81.9917 18.998C81.9827 19.0548 81.9861 19.1129 82.0018 19.1682C82.0176 19.2236 82.0452 19.2749 82.0827 19.3187C82.1203 19.3624 82.167 19.3975 82.2196 19.4216C82.2721 19.4457 82.3293 19.4582 82.3872 19.4582H84.3731C84.7031 19.4582 84.9832 19.2204 85.0338 18.8965L86.9817 6.63214C86.9907 6.57529 86.9873 6.51717 86.9716 6.46177C86.9559 6.40637 86.9283 6.35501 86.8907 6.31122C86.8531 6.26743 86.8064 6.23224 86.7539 6.20808C86.7013 6.18391 86.6441 6.17135 86.5862 6.17125H84.3625C84.267 6.17159 84.1748 6.20569 84.1023 6.26746C84.0299 6.32923 83.9819 6.41463 83.967 6.50835V6.50835Z" fill="white"/>
<path d="M5.13198 21.8417L5.50001 19.5183L4.6802 19.4994H0.765503L3.48602 2.35541C3.49412 2.30302 3.52088 2.25528 3.56144 2.22087C3.602 2.18647 3.65365 2.16769 3.70698 2.16797H10.3077C12.499 2.16797 14.0113 2.62117 14.8008 3.51569C15.171 3.93532 15.4067 4.37383 15.5207 4.85641C15.6404 5.36276 15.6425 5.96773 15.5257 6.70558L15.5172 6.75943V7.23221L15.8874 7.44063C16.1699 7.58291 16.4239 7.77538 16.6368 8.00853C16.9535 8.36732 17.1582 8.82331 17.2448 9.36394C17.3342 9.91995 17.3046 10.5816 17.1582 11.3306C16.9894 12.1922 16.7163 12.9427 16.3476 13.5567C16.0222 14.1068 15.5848 14.5833 15.0633 14.9555C14.5735 15.301 13.9916 15.5633 13.3336 15.7311C12.6961 15.8962 11.9691 15.9794 11.1719 15.9794H10.6581C10.2908 15.9794 9.93404 16.1109 9.65397 16.3466C9.37429 16.5848 9.18876 16.9139 9.13041 17.2754L9.09171 17.4845L8.44149 21.5794L8.41193 21.7298C8.40419 21.7773 8.39082 21.8011 8.37112 21.8172C8.35203 21.8327 8.32822 21.8413 8.30356 21.8417H5.13198Z" fill="#9E9E9E"/>
<path d="M16.2378 6.81398C16.2181 6.93917 16.1956 7.06716 16.1703 7.19864C15.2998 11.6404 12.3217 13.1749 8.51821 13.1749H6.58163C6.11648 13.1749 5.72452 13.5106 5.65204 13.9666L4.66052 20.2163L4.37974 21.9878C4.36856 22.0581 4.37283 22.1299 4.39226 22.1984C4.41169 22.2669 4.44582 22.3304 4.4923 22.3845C4.53878 22.4386 4.59651 22.482 4.66151 22.5118C4.72651 22.5416 4.79723 22.5571 4.86882 22.5571H8.30359C8.71033 22.5571 9.05584 22.2634 9.11988 21.8647L9.15366 21.6913L9.80036 17.6125L9.84188 17.3887C9.90521 16.9886 10.2514 16.6949 10.6582 16.6949H11.1719C14.4997 16.6949 17.1048 15.3521 17.8662 11.4663C18.1843 9.84301 18.0196 8.48761 17.178 7.53435C16.9112 7.23946 16.5926 6.99535 16.2378 6.81398V6.81398Z" fill="white"/>
<path d="M15.3272 6.45309C15.0492 6.37318 14.7665 6.31081 14.4806 6.26636C13.9158 6.18008 13.3449 6.13869 12.7734 6.14257H7.59983C7.40293 6.14242 7.21248 6.21228 7.0629 6.33952C6.91332 6.46676 6.81447 6.643 6.78423 6.83636L5.68364 13.7645L5.65198 13.9666C5.68626 13.746 5.79884 13.545 5.96935 13.3997C6.13985 13.2545 6.35702 13.1748 6.58157 13.1749H8.51816C12.3217 13.1749 15.2997 11.6397 16.1702 7.19864C16.1963 7.06715 16.2181 6.93917 16.2378 6.81398C16.0081 6.69426 15.7687 6.5939 15.5221 6.51394C15.4575 6.49262 15.3925 6.47234 15.3272 6.45309V6.45309Z" fill="#828285"/>
<path d="M6.78425 6.83636C6.81423 6.64294 6.91303 6.46663 7.06268 6.33945C7.21234 6.21227 7.40294 6.14266 7.59984 6.14327H12.7735C13.3864 6.14327 13.9585 6.18313 14.4806 6.26706C14.834 6.32225 15.1824 6.40479 15.5228 6.51394C15.7797 6.59857 16.0182 6.69858 16.2385 6.81398C16.4975 5.17252 16.2364 4.05491 15.3434 3.0429C14.3589 1.92878 12.5821 1.4518 10.3084 1.4518H3.70766C3.24322 1.4518 2.84704 1.7875 2.77526 2.2442L0.0258944 19.5645C0.0130883 19.6449 0.0179606 19.7271 0.0401761 19.8054C0.0623915 19.8838 0.101423 19.9565 0.154586 20.0184C0.207748 20.0803 0.27378 20.1301 0.348139 20.1643C0.422498 20.1984 0.50342 20.2162 0.585338 20.2163H4.66048L5.68366 13.7645L6.78425 6.83636Z" fill="#9E9E9E"/>
</svg>
